<svg xmlns="http://www.w3.org/2000/svg" width="407.49" height="154.131" viewBox="0 0 407.49 154.131">
  <g id="Grupo_2008" data-name="Grupo 2008" transform="translate(-82.873 -82.464)">
    <g id="Grupo_2028" data-name="Grupo 2028" transform="translate(82.873 82.464)">
      <g id="Grupo_2025" data-name="Grupo 2025">
        <g id="Grupo_2008-2" data-name="Grupo 2008" transform="translate(113.157 93.108)">
          <path id="Trazado_840" data-name="Trazado 840" d="M309.1,253.062a1.955,1.955,0,0,0-1.955,1.956v18.428l-15.958,9.214a1.956,1.956,0,0,0,1.956,3.388l16.936-9.779a1.954,1.954,0,0,0,.978-1.694V255.017A1.955,1.955,0,0,0,309.1,253.062Z" transform="translate(-290.205 -253.062)" fill="#fff"/>
        </g>
        <g id="Grupo_2009" data-name="Grupo 2009" transform="translate(48.11)">
          <path id="Trazado_841" data-name="Trazado 841" d="M207.83,92.505l-16.936-9.779a1.954,1.954,0,0,0-1.956,0L172,92.505a1.956,1.956,0,1,0,1.956,3.387l15.959-9.214,15.958,9.214a1.956,1.956,0,0,0,1.956-3.387Z" transform="translate(-171.023 -82.464)" fill="#fff"/>
        </g>
        <g id="Grupo_2010" data-name="Grupo 2010" transform="translate(0 93.108)">
          <path id="Trazado_842" data-name="Trazado 842" d="M102.743,282.659l-15.959-9.214V255.017a1.956,1.956,0,0,0-3.911,0v19.557a1.955,1.955,0,0,0,.977,1.694l16.937,9.779a1.956,1.956,0,0,0,1.956-3.388Z" transform="translate(-82.873 -253.062)" fill="#fff"/>
        </g>
        <g id="Grupo_2011" data-name="Grupo 2011" transform="translate(50.578 56.122)">
          <path id="Trazado_843" data-name="Trazado 843" d="M208.437,194.8,191.969,185.3l-16.425,9.483,16.467,9.488Z" transform="translate(-175.544 -185.295)" fill="#fff"/>
        </g>
        <g id="Grupo_2012" data-name="Grupo 2012" transform="translate(48.865 68.229)">
          <path id="Trazado_844" data-name="Trazado 844" d="M172.407,226.786l16.573,9.567V217.027l-16.573-9.55Z" transform="translate(-172.407 -207.477)" fill="#fff"/>
        </g>
        <g id="Grupo_2013" data-name="Grupo 2013" transform="translate(68.566 27.777)">
          <path id="Trazado_845" data-name="Trazado 845" d="M272.965,143.4l-16.936-9.778a1.956,1.956,0,1,0-1.955,3.387l14.393,8.31-21.071,12.166a1.543,1.543,0,0,0-.567.576l-38.323-22.126v23.058l18.92,10.924a1.564,1.564,0,0,1,.782,1.355v21.679l19.97,11.53V160.4h0a1.557,1.557,0,0,0,.781-.21l21.072-12.166V164.65a1.956,1.956,0,1,0,3.912,0V145.093A1.955,1.955,0,0,0,272.965,143.4Z" transform="translate(-208.504 -133.358)" fill="#fff"/>
        </g>
        <g id="Grupo_2014" data-name="Grupo 2014" transform="translate(68.567 68.28)">
          <path id="Trazado_846" data-name="Trazado 846" d="M225.078,226.711V207.57l-16.572,9.549V236.4l16.5-9.526A1.516,1.516,0,0,1,225.078,226.711Z" transform="translate(-208.506 -207.57)" fill="#fff"/>
        </g>
        <g id="Grupo_2015" data-name="Grupo 2015" transform="translate(27.186 90.164)">
          <path id="Trazado_847" data-name="Trazado 847" d="M188.459,298.207l-14.394,8.311V282.186a1.552,1.552,0,0,0-.216-.779L212.317,259.2l-19.97-11.529-19.064,11.006a1.564,1.564,0,0,1-1.564,0l-19.064-11.006L132.684,259.2l38.468,22.21a1.55,1.55,0,0,0-.216.779v24.332l-14.394-8.311a1.956,1.956,0,0,0-1.956,3.388l16.936,9.778a1.957,1.957,0,0,0,1.956,0l16.936-9.778a1.956,1.956,0,0,0-1.956-3.388Z" transform="translate(-132.684 -247.668)" fill="#fff"/>
        </g>
        <g id="Grupo_2016" data-name="Grupo 2016" transform="translate(0 27.777)">
          <path id="Trazado_848" data-name="Trazado 848" d="M148.311,158.984v-23.05L109.988,158.06a1.551,1.551,0,0,0-.567-.576L88.35,145.318l14.393-8.31a1.956,1.956,0,1,0-1.956-3.387L83.85,143.4a1.956,1.956,0,0,0-.977,1.694V164.65a1.956,1.956,0,1,0,3.911,0V148.028l21.072,12.166a1.554,1.554,0,0,0,.78.21h0v44.078l19.97-11.529V171.273a1.565,1.565,0,0,1,.783-1.355l18.92-10.924Z" transform="translate(-82.873 -133.358)" fill="#fff"/>
        </g>
        <g id="Grupo_2024" data-name="Grupo 2024" transform="translate(0 17.248)">
          <g id="Grupo_2023" data-name="Grupo 2023">
            <g id="Grupo_2017" data-name="Grupo 2017" transform="translate(130.094 54.804)">
              <path id="Trazado_849" data-name="Trazado 849" d="M323.194,224.509a1.955,1.955,0,0,1-1.956-1.956v-6.117a1.956,1.956,0,0,1,3.912,0v6.117A1.956,1.956,0,0,1,323.194,224.509Z" transform="translate(-321.238 -214.481)" fill="#fff"/>
            </g>
            <g id="Grupo_2018" data-name="Grupo 2018" transform="translate(94.921)">
              <path id="Trazado_850" data-name="Trazado 850" d="M264.045,121.038a1.938,1.938,0,0,1-.976-.262l-5.3-3.059a1.956,1.956,0,0,1,1.956-3.388l5.3,3.059a1.955,1.955,0,0,1-.98,3.649Z" transform="translate(-256.793 -114.067)" fill="#fff"/>
            </g>
            <g id="Grupo_2019" data-name="Grupo 2019" transform="translate(29.874)">
              <path id="Trazado_851" data-name="Trazado 851" d="M139.568,121.037a1.956,1.956,0,0,1-.98-3.649l5.3-3.059a1.956,1.956,0,1,1,1.956,3.388l-5.3,3.058A1.945,1.945,0,0,1,139.568,121.037Z" transform="translate(-137.61 -114.067)" fill="#fff"/>
            </g>
            <g id="Grupo_2020" data-name="Grupo 2020" transform="translate(0 54.804)">
              <path id="Trazado_852" data-name="Trazado 852" d="M84.829,224.511a1.956,1.956,0,0,1-1.956-1.956v-6.116a1.956,1.956,0,1,1,3.911,0v6.116A1.956,1.956,0,0,1,84.829,224.511Z" transform="translate(-82.873 -214.482)" fill="#fff"/>
            </g>
            <g id="Grupo_2021" data-name="Grupo 2021" transform="translate(29.874 112.664)">
              <path id="Trazado_853" data-name="Trazado 853" d="M144.862,327.468a1.944,1.944,0,0,1-.976-.262l-5.3-3.059a1.956,1.956,0,0,1,1.956-3.387l5.3,3.059a1.955,1.955,0,0,1-.98,3.649Z" transform="translate(-137.61 -320.497)" fill="#fff"/>
            </g>
            <g id="Grupo_2022" data-name="Grupo 2022" transform="translate(94.921 112.664)">
              <path id="Trazado_854" data-name="Trazado 854" d="M258.751,327.468a1.956,1.956,0,0,1-.98-3.649l5.3-3.059a1.956,1.956,0,0,1,1.956,3.388l-5.3,3.058A1.946,1.946,0,0,1,258.751,327.468Z" transform="translate(-256.793 -320.497)" fill="#fff"/>
            </g>
          </g>
        </g>
      </g>
      <g id="Grupo_2026" data-name="Grupo 2026" transform="translate(171.277 40.164)">
        <path id="Trazado_855" data-name="Trazado 855" d="M397.117,192.5a1.784,1.784,0,0,1-.42-1.31V157.976a1.5,1.5,0,0,1,1.729-1.729h18.282a1.013,1.013,0,0,1,.917.445,2.742,2.742,0,0,1,.288,1.44v1.047a2.742,2.742,0,0,1-.288,1.441,1.011,1.011,0,0,1-.917.444H402.3v10.687h12.887a1.012,1.012,0,0,1,.917.446,2.751,2.751,0,0,1,.288,1.44v1.048a2.75,2.75,0,0,1-.288,1.441,1.012,1.012,0,0,1-.917.446H402.3V188.1h14.458a1.016,1.016,0,0,1,.917.444,2.745,2.745,0,0,1,.289,1.441v1.048a2.733,2.733,0,0,1-.289,1.44,1.011,1.011,0,0,1-.917.445H398.426A1.781,1.781,0,0,1,397.117,192.5Z" transform="translate(-396.697 -156.142)" fill="#fff"/>
        <path id="Trazado_856" data-name="Trazado 856" d="M470.086,192.043l-11.84-34.259a2.61,2.61,0,0,1-.158-.786q0-.942,2.514-.943h.891q2.043,0,2.41,1.048l8.225,24.2a29.82,29.82,0,0,1,1.256,4.976h.21a38.66,38.66,0,0,1,1.309-5.029l8.172-24.149q.367-1.048,2.41-1.048h.628q2.515,0,2.514.943a3.657,3.657,0,0,1-.157.839l-11.787,34.207q-.262.892-2.357.89H472.39Q470.347,192.934,470.086,192.043Z" transform="translate(-424.583 -156.055)" fill="#fff"/>
        <path id="Trazado_857" data-name="Trazado 857" d="M530.4,191.991a3.088,3.088,0,0,1,.158-.839l12.154-34.207q.313-.89,2.357-.89H546.9q2.043,0,2.358.89L561.411,191.2a2.585,2.585,0,0,1,.157.786q0,.942-2.358.943h-.942q-1.992,0-2.358-.89l-2.776-7.962H538.623l-2.723,7.962q-.368.892-2.2.89h-.786Q530.4,192.934,530.4,191.991Zm21.059-12.73-4.767-13.829q-.21-.734-.393-1.729c-.122-.663-.219-1.134-.288-1.415H545.9a19.88,19.88,0,0,1-.786,3.144L540.3,179.261Z" transform="translate(-457.427 -156.055)" fill="#fff"/>
        <path id="Trazado_858" data-name="Trazado 858" d="M623.791,182.248,615.3,167.37q-.314-.524-1.257-2.252l-.21.052a26.286,26.286,0,0,1,.105,2.777v23.678q0,1.31-2.41,1.309h-.681q-2.41,0-2.41-1.309V157.364q0-1.308,2.41-1.309H613a2.645,2.645,0,0,1,2.514,1.1l9.533,16.658a8.965,8.965,0,0,1,1.1,2.619,27.748,27.748,0,0,1,1.31-2.723l9.429-16.553q.576-1.1,2.514-1.1h1.991q2.409,0,2.41,1.309v34.261q0,1.31-2.41,1.309h-.681q-2.41,0-2.41-1.309V168.209a27.4,27.4,0,0,1,.106-2.829l-.21-.053q-.629,1.259-1.257,2.306l-8.382,14.616a1.544,1.544,0,0,1-1.415.785h-1.937A1.544,1.544,0,0,1,623.791,182.248Z" transform="translate(-492.877 -156.055)" fill="#fff"/>
        <path id="Trazado_859" data-name="Trazado 859" d="M703.656,192.5a1.784,1.784,0,0,1-.42-1.31V157.976a1.5,1.5,0,0,1,1.729-1.729h18.282a1.013,1.013,0,0,1,.916.445,2.743,2.743,0,0,1,.288,1.44v1.047a2.742,2.742,0,0,1-.288,1.441,1.011,1.011,0,0,1-.916.444H708.841v10.687h12.887a1.012,1.012,0,0,1,.917.446,2.751,2.751,0,0,1,.288,1.44v1.048a2.75,2.75,0,0,1-.288,1.441,1.012,1.012,0,0,1-.917.446H708.841V188.1H723.3a1.015,1.015,0,0,1,.917.444,2.746,2.746,0,0,1,.289,1.441v1.048a2.734,2.734,0,0,1-.289,1.44,1.01,1.01,0,0,1-.917.445H704.965A1.781,1.781,0,0,1,703.656,192.5Z" transform="translate(-535.935 -156.142)" fill="#fff"/>
        <path id="Trazado_860" data-name="Trazado 860" d="M777.129,192.5a1.784,1.784,0,0,1-.419-1.31V157.976a1.5,1.5,0,0,1,1.729-1.729h10.739q7.544,0,11.944,4.479t4.4,13.856q0,9.379-4.4,13.856t-11.944,4.479H778.439A1.786,1.786,0,0,1,777.129,192.5Zm11.787-4.4a10.013,10.013,0,0,0,7.91-3.327q2.933-3.326,2.934-10.189t-2.934-10.189a10.016,10.016,0,0,0-7.91-3.327h-6.6V188.1Z" transform="translate(-569.308 -156.142)" fill="#fff"/>
      </g>
      <g id="Grupo_2027" data-name="Grupo 2027" transform="translate(170.563 85.038)">
        <path id="Trazado_861" data-name="Trazado 861" d="M403.08,240.393v.255c0,.336-.095.48-.319.48h-4.649v3.642h4.17c.224,0,.319.144.319.479v.256c0,.335-.095.479-.319.479h-4.17v3.9h4.665c.224,0,.319.144.319.479v.257c0,.335-.1.479-.319.479h-5.592c-.335,0-.479-.144-.479-.479V240.393c0-.335.144-.479.479-.479h5.576C402.985,239.914,403.08,240.058,403.08,240.393Z" transform="translate(-395.987 -239.019)" fill="#fff"/>
        <path id="Trazado_862" data-name="Trazado 862" d="M417.549,245.308a.7.7,0,0,1-.047.223l-2.572,7.669c-.064.192-.32.256-.64.256h-.559c-.319,0-.576-.064-.64-.256l-2.572-7.685a.784.784,0,0,1-.048-.207c0-.16.208-.272.687-.272h.08c.319,0,.575.064.639.257l1.629,5.1c.208.639.416,1.453.559,2h.064c.128-.544.288-1.358.479-1.965l1.646-5.128c.064-.192.319-.257.655-.257h.048C417.373,245.036,417.549,245.132,417.549,245.308Z" transform="translate(-402.239 -241.346)" fill="#fff"/>
        <path id="Trazado_863" data-name="Trazado 863" d="M432.14,247.429v3.579a9.286,9.286,0,0,0,.192,2.013c0,.3-.656.367-.863.367-.383,0-.463-.671-.559-1.118a3.52,3.52,0,0,1-2.685,1.2c-1.549,0-2.732-.752-2.732-2.4,0-2.7,2.86-2.875,5.3-2.907v-.75c0-.719-.431-1.343-1.757-1.343a5.813,5.813,0,0,0-2.493.671c-.223,0-.558-.623-.558-.8,0-.416,1.406-1.022,3-1.022C430.975,244.921,432.14,245.847,432.14,247.429Zm-5.208,3.563a1.194,1.194,0,0,0,1.357,1.309,3.51,3.51,0,0,0,2.508-1.1v-1.885C429.136,249.33,426.933,249.33,426.933,250.992Z" transform="translate(-409.063 -241.294)" fill="#fff"/>
        <path id="Trazado_864" data-name="Trazado 864" d="M443.764,238.744v9.426c0,.958.4,1.183.862,1.183a3.818,3.818,0,0,0,.688-.08c.223,0,.335.623.335.752,0,.431-.735.479-1.167.479a1.947,1.947,0,0,1-2.061-2.205v-9.554c0-.224.192-.351.639-.351h.064C443.571,238.393,443.764,238.52,443.764,238.744Z" transform="translate(-416.752 -238.329)" fill="#fff"/>
        <path id="Trazado_865" data-name="Trazado 865" d="M457.242,245.388v5.672a9.284,9.284,0,0,0,.192,2.013c0,.3-.655.367-.862.367-.384,0-.463-.671-.559-1.118a3.438,3.438,0,0,1-2.493,1.2,2.389,2.389,0,0,1-2.6-2.589v-5.544c0-.224.191-.352.638-.352h.064c.447,0,.639.128.639.352V250.8a1.452,1.452,0,0,0,1.63,1.549,2.672,2.672,0,0,0,2.013-1.118v-5.847c0-.224.192-.352.639-.352h.064C457.051,245.036,457.242,245.164,457.242,245.388Z" transform="translate(-420.61 -241.346)" fill="#fff"/>
        <path id="Trazado_866" data-name="Trazado 866" d="M473.111,247.429v3.579a9.287,9.287,0,0,0,.192,2.013c0,.3-.655.367-.862.367-.383,0-.463-.671-.559-1.118a3.518,3.518,0,0,1-2.684,1.2c-1.55,0-2.732-.752-2.732-2.4,0-2.7,2.86-2.875,5.3-2.907v-.75c0-.719-.431-1.343-1.757-1.343a5.813,5.813,0,0,0-2.493.671c-.223,0-.559-.623-.559-.8,0-.416,1.406-1.022,3-1.022C471.946,244.921,473.111,245.847,473.111,247.429Zm-5.207,3.563a1.194,1.194,0,0,0,1.357,1.309,3.51,3.51,0,0,0,2.508-1.1v-1.885C470.107,249.33,467.9,249.33,467.9,250.992Z" transform="translate(-427.673 -241.294)" fill="#fff"/>
        <path id="Trazado_867" data-name="Trazado 867" d="M488.7,245.655c0,.256-.3.863-.511.863a1.352,1.352,0,0,1-.175-.063,4.1,4.1,0,0,0-1.742-.384c-1.406,0-2.316.831-2.316,3.051,0,2.237.67,3.2,2.476,3.2a3.978,3.978,0,0,0,1.8-.415c.1-.032.16-.064.176-.064.223,0,.543.592.543.815,0,.368-1.118.815-2.508.815-2.588,0-3.931-1.231-3.931-4.314,0-3.339,1.95-4.233,3.787-4.233C487.531,244.921,488.7,245.272,488.7,245.655Z" transform="translate(-434.963 -241.294)" fill="#fff"/>
        <path id="Trazado_868" data-name="Trazado 868" d="M499.212,238.744v.943c0,.224-.192.351-.639.351h-.192c-.447,0-.639-.127-.639-.351v-.943c0-.224.192-.351.639-.351h.192C499.02,238.393,499.212,238.52,499.212,238.744Zm-.063,3.627v7.717c0,.223-.192.351-.639.351h-.064c-.447,0-.639-.128-.639-.351v-7.717c0-.224.192-.352.639-.352h.064C498.956,242.019,499.148,242.147,499.148,242.371Z" transform="translate(-441.88 -238.329)" fill="#fff"/>
        <path id="Trazado_869" data-name="Trazado 869" d="M511.9,246.535c0,2.764-1.247,4.234-3.627,4.234-2.412,0-3.707-1.486-3.707-4.234,0-2.764,1.327-4.313,3.707-4.313C510.621,242.222,511.9,243.755,511.9,246.535Zm-5.927-.032c0,2.125.686,3.116,2.252,3.116s2.285-.991,2.285-3.116-.719-3.132-2.285-3.132C506.675,243.371,505.973,244.362,505.973,246.5Zm4.313-7.318c0,.176-.16.32-1.5,1.854a1.1,1.1,0,0,1-.814.287c-.256,0-.368-.048-.368-.159a7.547,7.547,0,0,1,.928-1.774c.175-.3.479-.415.99-.415S510.286,239.025,510.286,239.185Z" transform="translate(-444.979 -238.594)" fill="#fff"/>
        <path id="Trazado_870" data-name="Trazado 870" d="M528.305,247.508v5.545c0,.223-.192.351-.639.351H527.6c-.448,0-.638-.128-.638-.351v-5.417a1.452,1.452,0,0,0-1.63-1.55,2.672,2.672,0,0,0-2.013,1.119v5.848c0,.223-.192.351-.639.351h-.064c-.448,0-.64-.128-.64-.351v-5.608a9.326,9.326,0,0,0-.191-2.013c0-.3.654-.368.862-.368.383,0,.463.639.559,1.054a3.438,3.438,0,0,1,2.492-1.2A2.389,2.389,0,0,1,528.305,247.508Z" transform="translate(-452.802 -241.294)" fill="#fff"/>
        <path id="Trazado_871" data-name="Trazado 871" d="M551.039,247.429v3.579a9.289,9.289,0,0,0,.192,2.013c0,.3-.655.367-.862.367-.383,0-.463-.671-.559-1.118a3.518,3.518,0,0,1-2.684,1.2c-1.55,0-2.733-.752-2.733-2.4,0-2.7,2.86-2.875,5.3-2.907v-.75c0-.719-.431-1.343-1.757-1.343a5.81,5.81,0,0,0-2.493.671c-.223,0-.559-.623-.559-.8,0-.416,1.406-1.022,3-1.022C549.874,244.921,551.039,245.847,551.039,247.429Zm-5.208,3.563a1.2,1.2,0,0,0,1.358,1.309,3.51,3.51,0,0,0,2.508-1.1v-1.885C548.036,249.33,545.832,249.33,545.832,250.992Z" transform="translate(-463.07 -241.294)" fill="#fff"/>
        <path id="Trazado_872" data-name="Trazado 872" d="M572.242,247.508v5.545c0,.223-.192.351-.639.351h-.064c-.447,0-.639-.128-.639-.351v-5.417a1.4,1.4,0,0,0-1.534-1.55,2.806,2.806,0,0,0-1.965,1.119,2.276,2.276,0,0,1,.016.319v5.529c0,.223-.191.351-.638.351h-.064c-.448,0-.64-.128-.64-.351v-5.417a1.4,1.4,0,0,0-1.534-1.55,2.707,2.707,0,0,0-1.949,1.1v5.864c0,.223-.192.351-.64.351h-.064c-.447,0-.639-.128-.639-.351v-5.608a9.3,9.3,0,0,0-.192-2.013c0-.3.654-.368.863-.368.383,0,.463.639.559,1.054a3.336,3.336,0,0,1,2.429-1.2,2.3,2.3,0,0,1,2.285,1.326,3.481,3.481,0,0,1,2.54-1.326A2.31,2.31,0,0,1,572.242,247.508Z" transform="translate(-470.639 -241.294)" fill="#fff"/>
        <path id="Trazado_873" data-name="Trazado 873" d="M587.587,238.744v4.026a3.508,3.508,0,0,1,2.284-.814c1.9,0,3.244,1.5,3.244,4.265,0,2.492-1.183,4.282-3.1,4.282a3.456,3.456,0,0,1-2.54-1.2,4.131,4.131,0,0,1-.256.942c-.063.144-.207.192-.431.192h-.064c-.335,0-.479-.128-.479-.351V238.744c0-.224.192-.351.639-.351h.064C587.394,238.393,587.587,238.52,587.587,238.744Zm0,5.113v4.377a3.055,3.055,0,0,0,2.157,1.1c1.261,0,1.965-1.166,1.965-3.228,0-1.9-.719-2.94-2.141-2.971A3.121,3.121,0,0,0,587.587,243.857Z" transform="translate(-482.08 -238.329)" fill="#fff"/>
        <path id="Trazado_874" data-name="Trazado 874" d="M604.436,238.744v.943c0,.224-.191.351-.638.351h-.192c-.447,0-.639-.127-.639-.351v-.943c0-.224.192-.351.639-.351h.192C604.245,238.393,604.436,238.52,604.436,238.744Zm-.063,3.627v7.717c0,.223-.192.351-.639.351h-.064c-.448,0-.64-.128-.64-.351v-7.717c0-.224.192-.352.64-.352h.064C604.181,242.019,604.372,242.147,604.372,242.371Z" transform="translate(-489.675 -238.329)" fill="#fff"/>
        <path id="Trazado_875" data-name="Trazado 875" d="M616.8,249.09c0,.192-.336.655-.528.655h-5.049c.128,1.774.88,2.573,2.461,2.573a5.085,5.085,0,0,0,2.332-.671c.224,0,.559.623.559.8,0,.383-1.263,1.023-2.876,1.023-2.652,0-3.915-1.359-3.915-4.218,0-2.828,1.279-4.329,3.723-4.329C615.7,244.921,616.8,246.374,616.8,249.09Zm-5.577-.5h4.154c0-1.677-.639-2.524-1.917-2.524C612.074,246.07,611.339,246.918,611.227,248.595Z" transform="translate(-492.774 -241.294)" fill="#fff"/>
        <path id="Trazado_876" data-name="Trazado 876" d="M632.65,247.508v5.545c0,.223-.192.351-.64.351h-.064c-.447,0-.639-.128-.639-.351v-5.417a1.452,1.452,0,0,0-1.63-1.55,2.671,2.671,0,0,0-2.013,1.119v5.848c0,.223-.192.351-.64.351h-.064c-.447,0-.639-.128-.639-.351v-5.608a9.326,9.326,0,0,0-.191-2.013c0-.3.654-.368.862-.368.383,0,.463.639.559,1.054a3.438,3.438,0,0,1,2.492-1.2A2.389,2.389,0,0,1,632.65,247.508Z" transform="translate(-500.198 -241.294)" fill="#fff"/>
        <path id="Trazado_877" data-name="Trazado 877" d="M643.821,241.729v1.677h1.341c.224,0,.32.144.32.479v.192c0,.335-.1.479-.32.479h-1.341v4.969c0,.958.4,1.183.862,1.183a3.818,3.818,0,0,0,.688-.08c.224,0,.335.623.335.752,0,.431-.735.479-1.166.479a1.947,1.947,0,0,1-2.061-2.206v-5.1h-.8c-.223,0-.319-.144-.319-.479v-.192c0-.335.1-.479.319-.479h.8l.191-1.677c.016-.224.176-.352.511-.352h.16C643.677,241.377,643.821,241.505,643.821,241.729Z" transform="translate(-507.115 -239.684)" fill="#fff"/>
        <path id="Trazado_878" data-name="Trazado 878" d="M658.372,247.429v3.579a9.289,9.289,0,0,0,.192,2.013c0,.3-.655.367-.862.367-.384,0-.463-.671-.559-1.118a3.519,3.519,0,0,1-2.685,1.2c-1.549,0-2.732-.752-2.732-2.4,0-2.7,2.86-2.875,5.3-2.907v-.75c0-.719-.432-1.343-1.757-1.343a5.812,5.812,0,0,0-2.493.671c-.223,0-.559-.623-.559-.8,0-.416,1.407-1.022,3-1.022C657.207,244.921,658.372,245.847,658.372,247.429Zm-5.208,3.563a1.2,1.2,0,0,0,1.358,1.309,3.512,3.512,0,0,0,2.508-1.1v-1.885C655.369,249.33,653.165,249.33,653.165,250.992Z" transform="translate(-511.823 -241.294)" fill="#fff"/>
        <path id="Trazado_879" data-name="Trazado 879" d="M670,238.744v9.426c0,.958.4,1.183.863,1.183a3.816,3.816,0,0,0,.687-.08c.223,0,.335.623.335.752,0,.431-.735.479-1.166.479a1.947,1.947,0,0,1-2.061-2.205v-9.554c0-.224.192-.351.64-.351h.064C669.8,238.393,670,238.52,670,238.744Z" transform="translate(-519.512 -238.329)" fill="#fff"/>
        <path id="Trazado_880" data-name="Trazado 880" d="M690.372,238.744v9.3a9.286,9.286,0,0,0,.192,2.013c0,.3-.656.367-.863.367-.383,0-.463-.671-.559-1.118a3.454,3.454,0,0,1-2.54,1.2c-1.917,0-3.1-1.79-3.1-4.266,0-2.78,1.343-4.281,3.244-4.281a3.511,3.511,0,0,1,2.285.814v-4.026c0-.224.191-.351.638-.351h.064C690.18,238.393,690.372,238.52,690.372,238.744Zm-5.464,7.365c0,2.061.7,3.228,1.965,3.228a3.059,3.059,0,0,0,2.157-1.1v-4.377a3.018,3.018,0,0,0-1.966-.719C685.627,243.169,684.908,244.208,684.908,246.109Z" transform="translate(-526.257 -238.329)" fill="#fff"/>
        <path id="Trazado_881" data-name="Trazado 881" d="M707.15,249.09c0,.192-.336.655-.527.655h-5.049c.128,1.774.879,2.573,2.461,2.573a5.085,5.085,0,0,0,2.332-.671c.224,0,.559.623.559.8,0,.383-1.263,1.023-2.876,1.023-2.652,0-3.915-1.359-3.915-4.218,0-2.828,1.278-4.329,3.723-4.329C706.048,244.921,707.15,246.374,707.15,249.09Zm-5.577-.5h4.154c0-1.677-.638-2.524-1.917-2.524C702.421,246.07,701.685,246.918,701.574,248.595Z" transform="translate(-533.812 -241.294)" fill="#fff"/>
        <path id="Trazado_882" data-name="Trazado 882" d="M729.964,249.09c0,.192-.336.655-.527.655h-5.049c.128,1.774.879,2.573,2.461,2.573a5.085,5.085,0,0,0,2.332-.671c.224,0,.559.623.559.8,0,.383-1.262,1.023-2.876,1.023-2.652,0-3.915-1.359-3.915-4.218,0-2.828,1.279-4.329,3.723-4.329C728.861,244.921,729.964,246.374,729.964,249.09Zm-5.577-.5h4.154c0-1.677-.639-2.524-1.917-2.524C725.234,246.07,724.5,246.918,724.387,248.595Z" transform="translate(-544.174 -241.294)" fill="#fff"/>
        <path id="Trazado_883" data-name="Trazado 883" d="M745.517,238.744v9.3a9.286,9.286,0,0,0,.192,2.013c0,.3-.655.367-.863.367-.383,0-.463-.671-.559-1.118a3.454,3.454,0,0,1-2.54,1.2c-1.917,0-3.1-1.79-3.1-4.266,0-2.78,1.343-4.281,3.244-4.281a3.512,3.512,0,0,1,2.285.814v-4.026c0-.224.191-.351.638-.351h.064C745.325,238.393,745.517,238.52,745.517,238.744Zm-5.464,7.365c0,2.061.7,3.228,1.965,3.228a3.059,3.059,0,0,0,2.157-1.1v-4.377a3.019,3.019,0,0,0-1.966-.719C740.771,243.169,740.053,244.208,740.053,246.109Z" transform="translate(-551.304 -238.329)" fill="#fff"/>
        <path id="Trazado_884" data-name="Trazado 884" d="M757.687,238.744v.943c0,.224-.191.351-.638.351h-.192c-.448,0-.64-.127-.64-.351v-.943c0-.224.192-.351.64-.351h.192C757.5,238.393,757.687,238.52,757.687,238.744Zm-.063,3.627v7.717c0,.223-.192.351-.64.351h-.064c-.448,0-.639-.128-.639-.351v-7.717c0-.224.191-.352.639-.352h.064C757.432,242.019,757.624,242.147,757.624,242.371Z" transform="translate(-559.286 -238.329)" fill="#fff"/>
        <path id="Trazado_885" data-name="Trazado 885" d="M767.023,238.754c0,.127-.111.75-.335.75a3.844,3.844,0,0,0-.688-.08c-.463,0-.862.128-.862,1.183V242h1.39c.224,0,.32.144.32.479v.192c0,.335-.1.479-.32.479h-1.39v6.887c0,.223-.192.351-.639.351h-.064c-.447,0-.638-.128-.638-.351v-6.887h-.64c-.224,0-.32-.144-.32-.479v-.192c0-.335.1-.479.32-.479h.64v-1.518a1.921,1.921,0,0,1,2.061-2.2C766.289,238.275,767.023,238.323,767.023,238.754Zm2.668-.064v.943c0,.224-.192.351-.64.351h-.191c-.447,0-.639-.127-.639-.351v-.943c0-.224.192-.351.639-.351h.191C769.5,238.339,769.691,238.467,769.691,238.69Zm-.064,3.627v7.717c0,.223-.191.351-.639.351h-.063c-.449,0-.64-.128-.64-.351v-7.717c0-.224.191-.352.64-.352h.063C769.436,241.965,769.627,242.093,769.627,242.317Z" transform="translate(-562.293 -238.275)" fill="#fff"/>
        <path id="Trazado_886" data-name="Trazado 886" d="M785.624,245.655c0,.256-.3.863-.511.863a1.352,1.352,0,0,1-.175-.063,4.1,4.1,0,0,0-1.742-.384c-1.405,0-2.316.831-2.316,3.051,0,2.237.671,3.2,2.477,3.2a3.982,3.982,0,0,0,1.8-.415c.1-.032.16-.064.176-.064.223,0,.544.592.544.815,0,.368-1.119.815-2.508.815-2.589,0-3.931-1.231-3.931-4.314,0-3.339,1.95-4.233,3.787-4.233C784.459,244.921,785.624,245.272,785.624,245.655Z" transform="translate(-569.834 -241.294)" fill="#fff"/>
        <path id="Trazado_887" data-name="Trazado 887" d="M796.139,238.744v.943c0,.224-.191.351-.638.351h-.192c-.448,0-.64-.127-.64-.351v-.943c0-.224.192-.351.64-.351h.192C795.948,238.393,796.139,238.52,796.139,238.744Zm-.063,3.627v7.717c0,.223-.192.351-.64.351h-.064c-.447,0-.639-.128-.639-.351v-7.717c0-.224.192-.352.639-.352h.064C795.884,242.019,796.076,242.147,796.076,242.371Z" transform="translate(-576.751 -238.329)" fill="#fff"/>
        <path id="Trazado_888" data-name="Trazado 888" d="M808.828,249.234c0,2.764-1.247,4.234-3.627,4.234-2.412,0-3.707-1.486-3.707-4.234,0-2.764,1.327-4.313,3.707-4.313C807.549,244.921,808.828,246.455,808.828,249.234ZM802.9,249.2c0,2.125.687,3.116,2.252,3.116s2.285-.991,2.285-3.116-.719-3.132-2.285-3.132C803.6,246.07,802.9,247.061,802.9,249.2Z" transform="translate(-579.852 -241.294)" fill="#fff"/>
        <path id="Trazado_889" data-name="Trazado 889" d="M822.525,245.578c0,.256-.3.863-.511.863a3.1,3.1,0,0,0-1.454-.416c-.8,0-1.422.384-1.422,1.007,0,.719.352,1.118,1.246,1.391,1.966.606,2.556,1.134,2.556,2.588a2.624,2.624,0,0,1-2.828,2.493c-1.454,0-2.54-.64-2.54-1.007,0-.176.335-.8.559-.8a3.569,3.569,0,0,0,1.885.639c1.023,0,1.566-.415,1.566-1.294,0-.719-.4-1.087-1.6-1.439-1.725-.511-2.22-1.2-2.22-2.4a2.411,2.411,0,0,1,2.651-2.316C821.5,244.891,822.525,245.227,822.525,245.578Z" transform="translate(-587.155 -241.28)" fill="#fff"/>
        <path id="Trazado_890" data-name="Trazado 890" d="M401.571,275.651c0,.256-.3.862-.511.862a1.413,1.413,0,0,1-.175-.063,4.1,4.1,0,0,0-1.742-.384c-1.406,0-2.316.832-2.316,3.052,0,2.237.67,3.2,2.476,3.2a3.978,3.978,0,0,0,1.8-.415c.1-.032.16-.064.176-.064.223,0,.543.591.543.814,0,.368-1.118.815-2.508.815-2.588,0-3.931-1.231-3.931-4.314,0-3.339,1.95-4.233,3.787-4.233C400.405,274.916,401.571,275.267,401.571,275.651Z" transform="translate(-395.388 -254.918)" fill="#fff"/>
        <path id="Trazado_891" data-name="Trazado 891" d="M417.013,279.229c0,2.764-1.247,4.234-3.627,4.234-2.412,0-3.707-1.486-3.707-4.234,0-2.764,1.327-4.313,3.707-4.313C415.734,274.916,417.013,276.45,417.013,279.229Zm-5.927-.032c0,2.125.686,3.116,2.252,3.116s2.285-.991,2.285-3.116-.719-3.132-2.285-3.132C411.788,276.065,411.086,277.056,411.086,279.2Z" transform="translate(-401.879 -254.918)" fill="#fff"/>
        <path id="Trazado_892" data-name="Trazado 892" d="M433.418,277.5v5.545c0,.223-.192.351-.639.351h-.064c-.447,0-.638-.128-.638-.351v-5.417a1.452,1.452,0,0,0-1.63-1.549,2.67,2.67,0,0,0-2.013,1.118v5.848c0,.223-.192.351-.639.351h-.064c-.447,0-.639-.128-.639-.351V277.44a9.326,9.326,0,0,0-.191-2.013c0-.3.654-.368.862-.368.383,0,.463.64.559,1.054a3.438,3.438,0,0,1,2.492-1.2A2.389,2.389,0,0,1,433.418,277.5Z" transform="translate(-409.702 -254.918)" fill="#fff"/>
        <path id="Trazado_893" data-name="Trazado 893" d="M456.7,279.085c0,.192-.336.656-.527.656h-5.049c.128,1.774.88,2.572,2.461,2.572a5.085,5.085,0,0,0,2.332-.671c.224,0,.559.623.559.8,0,.383-1.263,1.022-2.876,1.022-2.652,0-3.915-1.358-3.915-4.218,0-2.827,1.279-4.329,3.723-4.329C455.6,274.916,456.7,276.37,456.7,279.085Zm-5.577-.495h4.154c0-1.677-.639-2.525-1.917-2.525C451.969,276.065,451.234,276.913,451.122,278.59Z" transform="translate(-420.051 -254.918)" fill="#fff"/>
        <path id="Trazado_894" data-name="Trazado 894" d="M472.545,277.5v5.545c0,.223-.192.351-.64.351h-.064c-.448,0-.639-.128-.639-.351v-5.417a1.452,1.452,0,0,0-1.63-1.549,2.67,2.67,0,0,0-2.013,1.118v5.848c0,.223-.192.351-.64.351h-.064c-.448,0-.639-.128-.639-.351V277.44a9.3,9.3,0,0,0-.192-2.013c0-.3.654-.368.863-.368.383,0,.463.64.559,1.054a3.439,3.439,0,0,1,2.493-1.2A2.39,2.39,0,0,1,472.545,277.5Z" transform="translate(-427.474 -254.918)" fill="#fff"/>
        <path id="Trazado_895" data-name="Trazado 895" d="M485.762,268.75c0,.127-.111.75-.335.75a3.808,3.808,0,0,0-.687-.08c-.463,0-.863.128-.863,1.183v1.39h1.39c.224,0,.32.144.32.479v.192c0,.335-.1.479-.32.479h-1.39v6.887c0,.223-.192.351-.639.351h-.064c-.448,0-.639-.128-.639-.351v-6.887H481.9c-.224,0-.319-.144-.319-.479v-.192c0-.335.095-.479.319-.479h.639v-1.518a1.921,1.921,0,0,1,2.061-2.2C485.028,268.271,485.762,268.319,485.762,268.75Z" transform="translate(-434.537 -251.9)" fill="#fff"/>
        <path id="Trazado_896" data-name="Trazado 896" d="M498.632,279.229c0,2.764-1.247,4.234-3.627,4.234-2.412,0-3.707-1.486-3.707-4.234,0-2.764,1.327-4.313,3.707-4.313C497.353,274.916,498.632,276.45,498.632,279.229ZM492.7,279.2c0,2.125.686,3.116,2.252,3.116s2.285-.991,2.285-3.116-.719-3.132-2.285-3.132C493.407,276.065,492.7,277.056,492.7,279.2Z" transform="translate(-438.953 -254.918)" fill="#fff"/>
        <path id="Trazado_897" data-name="Trazado 897" d="M513.513,276.113a5.211,5.211,0,0,1,.256-.942c.064-.144.207-.192.432-.192h.064c.335,0,.479.128.479.352v11.008c0,.224-.192.351-.639.351h-.065c-.447,0-.638-.127-.638-.351v-3.691a3.512,3.512,0,0,1-2.285.815c-1.9,0-3.244-1.5-3.244-4.25,0-2.508,1.182-4.3,3.1-4.3A3.457,3.457,0,0,1,513.513,276.113Zm-4.233,3.2c0,1.9.718,2.94,2.14,2.971a3.028,3.028,0,0,0,1.982-.718v-4.378a3.059,3.059,0,0,0-2.157-1.1C509.983,276.082,509.28,277.248,509.28,279.309Z" transform="translate(-446.482 -254.918)" fill="#fff"/>
        <path id="Trazado_898" data-name="Trazado 898" d="M531.451,275.384v5.672a9.3,9.3,0,0,0,.192,2.013c0,.3-.655.367-.862.367-.384,0-.463-.671-.559-1.118a3.435,3.435,0,0,1-2.492,1.2,2.389,2.389,0,0,1-2.6-2.588v-5.544c0-.224.191-.352.639-.352h.064c.448,0,.639.128.639.352V280.8a1.452,1.452,0,0,0,1.63,1.55,2.673,2.673,0,0,0,2.013-1.119v-5.847c0-.224.192-.352.64-.352h.064C531.26,275.032,531.451,275.16,531.451,275.384Z" transform="translate(-454.318 -254.971)" fill="#fff"/>
        <path id="Trazado_899" data-name="Trazado 899" d="M547.864,279.085c0,.192-.336.656-.527.656h-5.049c.128,1.774.88,2.572,2.461,2.572a5.085,5.085,0,0,0,2.332-.671c.224,0,.559.623.559.8,0,.383-1.263,1.022-2.876,1.022-2.652,0-3.915-1.358-3.915-4.218,0-2.827,1.279-4.329,3.723-4.329C546.762,274.916,547.864,276.37,547.864,279.085Zm-5.577-.495h4.154c0-1.677-.639-2.525-1.917-2.525C543.135,276.065,542.4,276.913,542.288,278.59Z" transform="translate(-461.46 -254.918)" fill="#fff"/>
        <path id="Trazado_900" data-name="Trazado 900" d="M570.446,268.739v9.3a9.306,9.306,0,0,0,.192,2.013c0,.3-.655.367-.863.367-.383,0-.463-.671-.559-1.118a3.455,3.455,0,0,1-2.54,1.2c-1.917,0-3.1-1.79-3.1-4.266,0-2.779,1.343-4.281,3.244-4.281a3.511,3.511,0,0,1,2.285.814v-4.026c0-.224.191-.353.638-.353h.064C570.254,268.386,570.446,268.514,570.446,268.739Zm-5.464,7.365c0,2.061.7,3.228,1.965,3.228a3.06,3.06,0,0,0,2.157-1.1v-4.377a3.018,3.018,0,0,0-1.966-.719C565.7,273.164,564.982,274.2,564.982,276.1Z" transform="translate(-471.783 -251.952)" fill="#fff"/>
        <path id="Trazado_901" data-name="Trazado 901" d="M587.224,279.085c0,.192-.336.656-.527.656h-5.049c.128,1.774.879,2.572,2.461,2.572a5.088,5.088,0,0,0,2.333-.671c.224,0,.559.623.559.8,0,.383-1.262,1.022-2.875,1.022-2.652,0-3.915-1.358-3.915-4.218,0-2.827,1.279-4.329,3.723-4.329C586.121,274.916,587.224,276.37,587.224,279.085Zm-5.577-.495H585.8c0-1.677-.638-2.525-1.917-2.525C582.494,276.065,581.759,276.913,581.647,278.59Z" transform="translate(-479.338 -254.918)" fill="#fff"/>
        <path id="Trazado_902" data-name="Trazado 902" d="M609.118,275.651c0,.256-.3.862-.511.862a1.383,1.383,0,0,1-.175-.063,4.108,4.108,0,0,0-1.742-.384c-1.406,0-2.316.832-2.316,3.052,0,2.237.67,3.2,2.476,3.2a3.979,3.979,0,0,0,1.8-.415c.1-.032.16-.064.176-.064.223,0,.543.591.543.814,0,.368-1.118.815-2.508.815-2.589,0-3.931-1.231-3.931-4.314,0-3.339,1.95-4.233,3.787-4.233C607.952,274.916,609.118,275.267,609.118,275.651Z" transform="translate(-489.661 -254.918)" fill="#fff"/>
        <path id="Trazado_903" data-name="Trazado 903" d="M619.633,268.739v.942c0,.224-.191.351-.639.351H618.8c-.447,0-.639-.127-.639-.351v-.942c0-.224.192-.353.639-.353h.192C619.442,268.386,619.633,268.514,619.633,268.739Zm-.063,3.627v7.717c0,.223-.192.351-.639.351h-.064c-.448,0-.64-.128-.64-.351v-7.717c0-.224.192-.352.64-.352h.064C619.377,272.013,619.569,272.141,619.569,272.365Z" transform="translate(-496.578 -251.952)" fill="#fff"/>
        <path id="Trazado_904" data-name="Trazado 904" d="M631.083,275.651c0,.256-.3.862-.511.862a1.348,1.348,0,0,1-.175-.063,4.105,4.105,0,0,0-1.742-.384c-1.406,0-2.316.832-2.316,3.052,0,2.237.67,3.2,2.476,3.2a3.978,3.978,0,0,0,1.8-.415c.1-.032.16-.064.176-.064.223,0,.543.591.543.814,0,.368-1.118.815-2.508.815-2.588,0-3.931-1.231-3.931-4.314,0-3.339,1.95-4.233,3.787-4.233C629.917,274.916,631.083,275.267,631.083,275.651Z" transform="translate(-499.638 -254.918)" fill="#fff"/>
        <path id="Trazado_905" data-name="Trazado 905" d="M641.324,268.739v9.426c0,.959.4,1.183.862,1.183a3.817,3.817,0,0,0,.688-.08c.223,0,.335.623.335.752,0,.431-.735.479-1.167.479a1.946,1.946,0,0,1-2.061-2.2v-9.554c0-.224.192-.353.639-.353h.064C641.131,268.386,641.324,268.514,641.324,268.739Z" transform="translate(-506.488 -251.952)" fill="#fff"/>
        <path id="Trazado_906" data-name="Trazado 906" d="M655.223,279.229c0,2.764-1.247,4.234-3.627,4.234-2.412,0-3.707-1.486-3.707-4.234,0-2.764,1.327-4.313,3.707-4.313C653.944,274.916,655.223,276.45,655.223,279.229ZM649.3,279.2c0,2.125.686,3.116,2.252,3.116s2.285-.991,2.285-3.116-.719-3.132-2.285-3.132C650,276.065,649.3,277.056,649.3,279.2Z" transform="translate(-510.08 -254.918)" fill="#fff"/>
        <path id="Trazado_907" data-name="Trazado 907" d="M678.363,268.739v9.3a9.3,9.3,0,0,0,.192,2.013c0,.3-.655.367-.863.367-.383,0-.463-.671-.559-1.118a3.457,3.457,0,0,1-2.541,1.2c-1.917,0-3.1-1.79-3.1-4.266,0-2.779,1.343-4.281,3.243-4.281a3.511,3.511,0,0,1,2.285.814v-4.026c0-.224.191-.353.639-.353h.064C678.171,268.386,678.363,268.514,678.363,268.739ZM672.9,276.1c0,2.061.7,3.228,1.965,3.228a3.058,3.058,0,0,0,2.157-1.1v-4.377a3.017,3.017,0,0,0-1.966-.719C673.618,273.164,672.9,274.2,672.9,276.1Z" transform="translate(-520.802 -251.952)" fill="#fff"/>
        <path id="Trazado_908" data-name="Trazado 908" d="M695.141,279.085c0,.192-.336.656-.527.656h-5.049c.128,1.774.879,2.572,2.461,2.572a5.085,5.085,0,0,0,2.332-.671c.224,0,.559.623.559.8,0,.383-1.263,1.022-2.876,1.022-2.652,0-3.915-1.358-3.915-4.218,0-2.827,1.279-4.329,3.723-4.329C694.039,274.916,695.141,276.37,695.141,279.085Zm-5.577-.495h4.154c0-1.677-.639-2.525-1.917-2.525C690.412,276.065,689.676,276.913,689.565,278.59Z" transform="translate(-528.357 -254.918)" fill="#fff"/>
        <path id="Trazado_909" data-name="Trazado 909" d="M717.023,275.3a.7.7,0,0,1-.047.223L714.4,283.2c-.064.192-.32.257-.64.257H713.2c-.319,0-.575-.064-.639-.257l-2.572-7.684a.789.789,0,0,1-.048-.207c0-.16.208-.272.687-.272h.08c.319,0,.575.064.639.256l1.629,5.1c.208.64.416,1.454.559,2h.064c.128-.543.288-1.357.479-1.965l1.646-5.129c.064-.192.319-.256.655-.256h.048C716.847,275.032,717.023,275.128,717.023,275.3Z" transform="translate(-538.268 -254.971)" fill="#fff"/>
        <path id="Trazado_910" data-name="Trazado 910" d="M727.55,268.739v.942c0,.224-.191.351-.638.351h-.192c-.448,0-.64-.127-.64-.351v-.942c0-.224.192-.353.64-.353h.192C727.359,268.386,727.55,268.514,727.55,268.739Zm-.063,3.627v7.717c0,.223-.192.351-.64.351h-.064c-.447,0-.639-.128-.639-.351v-7.717c0-.224.192-.352.639-.352h.064C727.295,272.013,727.487,272.141,727.487,272.365Z" transform="translate(-545.597 -251.952)" fill="#fff"/>
        <path id="Trazado_911" data-name="Trazado 911" d="M739.688,268.739v9.3a9.3,9.3,0,0,0,.192,2.013c0,.3-.655.367-.863.367-.384,0-.463-.671-.559-1.118a3.457,3.457,0,0,1-2.541,1.2c-1.917,0-3.1-1.79-3.1-4.266,0-2.779,1.343-4.281,3.243-4.281a3.511,3.511,0,0,1,2.285.814v-4.026c0-.224.191-.353.639-.353h.064C739.5,268.386,739.688,268.514,739.688,268.739Zm-5.464,7.365c0,2.061.7,3.228,1.965,3.228a3.058,3.058,0,0,0,2.157-1.1v-4.377a3.017,3.017,0,0,0-1.966-.719C734.942,273.164,734.224,274.2,734.224,276.1Z" transform="translate(-548.657 -251.952)" fill="#fff"/>
        <path id="Trazado_912" data-name="Trazado 912" d="M755.921,277.424V281a9.3,9.3,0,0,0,.192,2.013c0,.3-.656.367-.862.367-.383,0-.463-.671-.559-1.118a3.519,3.519,0,0,1-2.684,1.2c-1.55,0-2.733-.752-2.733-2.4,0-2.7,2.86-2.877,5.3-2.909v-.75c0-.719-.431-1.343-1.757-1.343a5.816,5.816,0,0,0-2.494.671c-.223,0-.558-.623-.558-.8,0-.416,1.406-1.023,3-1.023C754.756,274.916,755.921,275.843,755.921,277.424Zm-5.208,3.563a1.2,1.2,0,0,0,1.358,1.31,3.512,3.512,0,0,0,2.508-1.1v-1.885C752.918,279.325,750.714,279.325,750.714,280.987Z" transform="translate(-556.132 -254.918)" fill="#fff"/>
      </g>
    </g>
  </g>
</svg>
