<svg xmlns="http://www.w3.org/2000/svg" width="55.981" height="52.045" viewBox="0 0 55.981 52.045"><defs><style>.a{fill:#767676;}</style></defs><g transform="translate(0 -8.999)"><path class="a" d="M53.894,112.387H43.039a.547.547,0,1,1,0-1.093H53.894a.547.547,0,0,1,0,1.093Z" transform="translate(-33.2 -79.926)"/><path class="a" d="M53.894,130.406H43.039a.547.547,0,1,1,0-1.093H53.894a.547.547,0,1,1,0,1.093Z" transform="translate(-33.2 -94.004)"/><path class="a" d="M53.894,58.329H43.039a.547.547,0,1,1,0-1.093H53.894a.547.547,0,1,1,0,1.093Z" transform="translate(-33.2 -37.689)"/><path class="a" d="M53.894,76.348H43.039a.547.547,0,1,1,0-1.093H53.894a.547.547,0,0,1,0,1.093Z" transform="translate(-33.2 -51.767)"/><path class="a" d="M53.894,94.367H43.039a.547.547,0,1,1,0-1.093H53.894a.547.547,0,1,1,0,1.093Z" transform="translate(-33.2 -65.846)"/><path class="a" d="M53.894,148.425H43.039a.547.547,0,1,1,0-1.093H53.894a.547.547,0,1,1,0,1.093Z" transform="translate(-33.2 -108.083)"/><path class="a" d="M22.876,55.242a.545.545,0,0,1-.387-.16l-.809-.809a.547.547,0,1,1,.773-.773l.424.424,1.111-1.1a.547.547,0,1,1,.769.777l-1.5,1.482A.547.547,0,0,1,22.876,55.242Z" transform="translate(-16.814 -34.118)"/><path class="a" d="M22.876,73.261a.545.545,0,0,1-.387-.16l-.809-.809a.547.547,0,0,1,.773-.773l.424.424,1.111-1.1a.547.547,0,1,1,.769.777l-1.5,1.482A.546.546,0,0,1,22.876,73.261Z" transform="translate(-16.814 -48.197)"/><path class="a" d="M22.876,91.28a.545.545,0,0,1-.387-.16l-.809-.809a.547.547,0,1,1,.773-.773l.424.424,1.111-1.1a.547.547,0,0,1,.769.777l-1.5,1.482A.545.545,0,0,1,22.876,91.28Z" transform="translate(-16.814 -62.275)"/><path class="a" d="M187.891,180.155H177.036a.547.547,0,1,1,0-1.093h10.855a.547.547,0,1,1,0,1.093Z" transform="translate(-137.895 -132.874)"/><path class="a" d="M187.891,198.175H177.036a.547.547,0,1,1,0-1.093h10.855a.547.547,0,1,1,0,1.093Z" transform="translate(-137.895 -146.954)"/><path class="a" d="M187.891,126.1H177.036a.547.547,0,1,1,0-1.093h10.855a.547.547,0,1,1,0,1.093Z" transform="translate(-137.895 -90.638)"/><path class="a" d="M187.891,144.117H177.036a.547.547,0,1,1,0-1.093h10.855a.547.547,0,1,1,0,1.093Z" transform="translate(-137.895 -104.717)"/><path class="a" d="M187.891,162.136H177.036a.547.547,0,1,1,0-1.093h10.855a.547.547,0,1,1,0,1.093Z" transform="translate(-137.895 -118.796)"/><path class="a" d="M187.891,216.194H177.036a.547.547,0,1,1,0-1.093h10.855a.547.547,0,1,1,0,1.093Z" transform="translate(-137.895 -161.033)"/><path class="a" d="M156.873,123.011a.545.545,0,0,1-.387-.16l-.809-.809a.547.547,0,0,1,.773-.773l.424.424,1.111-1.1a.547.547,0,0,1,.769.777l-1.5,1.482A.545.545,0,0,1,156.873,123.011Z" transform="translate(-121.51 -87.068)"/><path class="a" d="M156.873,141.03a.545.545,0,0,1-.387-.16l-.809-.809a.547.547,0,1,1,.773-.773l.424.424,1.111-1.1a.547.547,0,0,1,.769.777l-1.5,1.482A.545.545,0,0,1,156.873,141.03Z" transform="translate(-121.51 -101.146)"/><path class="a" d="M156.873,159.049a.545.545,0,0,1-.387-.16l-.809-.809a.547.547,0,1,1,.773-.773l.424.424,1.111-1.1a.547.547,0,0,1,.769.777l-1.5,1.482A.545.545,0,0,1,156.873,159.049Z" transform="translate(-121.51 -115.225)"/><path class="a" d="M105.125,46.2a1.728,1.728,0,0,1-1.231-.51l-3.447-3.447a1.74,1.74,0,0,1,0-2.461l3.447-3.447a1.74,1.74,0,0,1,2.461,2.461l-.476.476H112.8a1.741,1.741,0,1,1,0,3.481H105.88l.476.476a1.741,1.741,0,0,1-1.231,2.971Zm0-9.282a.643.643,0,0,0-.458.19l-3.447,3.447a.647.647,0,0,0,0,.915l3.447,3.447a.663.663,0,0,0,.915,0,.648.648,0,0,0,0-.915L104.173,42.6a.547.547,0,0,1,.387-.933H112.8a.647.647,0,1,0,0-1.294H104.56a.547.547,0,0,1-.387-.933l1.409-1.409a.648.648,0,0,0,0-.915.642.642,0,0,0-.458-.19Z" transform="translate(-78.083 -20.962)"/><path class="a" d="M141,79.758h-6.452a.547.547,0,0,1-.547-.547V78.7a1.929,1.929,0,0,1,1.927-1.927H139.3a.547.547,0,0,1,.522.382.638.638,0,0,0,.155.264l1.409,1.409a.547.547,0,0,1-.387.933Zm-5.9-1.093h4.585l-.476-.476a1.683,1.683,0,0,1-.254-.326h-3.023A.834.834,0,0,0,135.091,78.664Z" transform="translate(-104.695 -52.95)"/><path class="a" d="M158.749,113.993H135.924A1.929,1.929,0,0,1,134,112.067V81.6a.547.547,0,0,1,.547-.547H141a.547.547,0,0,1,.387.933l-1.409,1.409a.648.648,0,0,0,0,.915.663.663,0,0,0,.915,0l3.447-3.447a.647.647,0,0,0,0-.915L142.091,77.7a.547.547,0,0,1,.387-.933H153.16a.547.547,0,0,1,.387.16l6.969,6.969a.546.546,0,0,1,.16.387v27.783A1.929,1.929,0,0,1,158.749,113.993ZM135.09,82.145v29.922a.834.834,0,0,0,.833.833h22.826a.834.834,0,0,0,.833-.833V84.511l-6.649-6.649H143.8l1.312,1.312a1.74,1.74,0,0,1,0,2.462l-3.447,3.447a1.74,1.74,0,1,1-2.461-2.461l.476-.476H135.09Z" transform="translate(-104.695 -52.95)"/><path class="a" d="M129.775,80.047a1.741,1.741,0,0,1-1.231-2.971l.476-.476H122.1a1.741,1.741,0,0,1,0-3.481h6.921l-.476-.476a1.741,1.741,0,1,1,2.461-2.462l3.447,3.447a1.74,1.74,0,0,1,0,2.462l-3.447,3.447A1.729,1.729,0,0,1,129.775,80.047ZM122.1,74.212a.647.647,0,0,0,0,1.294h8.241a.547.547,0,0,1,.387.933l-1.409,1.409a.648.648,0,0,0,0,.915.663.663,0,0,0,.915,0l3.447-3.447a.647.647,0,0,0,0-.915l-3.447-3.447a.663.663,0,0,0-.915,0,.648.648,0,0,0,0,.915l1.409,1.409a.547.547,0,0,1-.387.933H122.1Z" transform="translate(-94.04 -47.404)"/><path class="a" d="M226.645,84.831h-5.59a1.929,1.929,0,0,1-1.927-1.927v-5.59a.547.547,0,0,1,.933-.387l6.969,6.969a.547.547,0,0,1-.386.933Zm-6.423-6.2V82.9a.834.834,0,0,0,.833.833h4.27Z" transform="translate(-171.211 -52.95)"/><path class="a" d="M24.752,46.225H1.927A1.929,1.929,0,0,1,0,44.3V10.927A1.929,1.929,0,0,1,1.927,9H19.163a.547.547,0,0,1,.387.16l6.625,6.625a.546.546,0,0,1,0,.773L23.137,19.6a.647.647,0,0,0,0,.915l3.382,3.382a.546.546,0,0,1,.16.387V44.3a1.929,1.929,0,0,1-1.927,1.926ZM1.927,10.093a.834.834,0,0,0-.833.833V44.3a.834.834,0,0,0,.833.833H24.752a.834.834,0,0,0,.833-.833V24.508l-3.222-3.222a1.74,1.74,0,0,1,0-2.461l2.652-2.652-6.079-6.079Z" transform="translate(0 -0.001)"/><path class="a" d="M91.96,17.062h-4.9a1.929,1.929,0,0,1-1.927-1.927V9.546a.547.547,0,0,1,.933-.387l6.625,6.625a.546.546,0,0,1,0,.773l-.344.344a.545.545,0,0,1-.386.16Zm-5.735-6.2v4.27a.834.834,0,0,0,.833.833h4.27Z" transform="translate(-66.516 0)"/><path class="a" d="M158.358,178.405a.545.545,0,0,1-.387-.16l-1.7-1.7a.547.547,0,0,1,.773-.773l1.7,1.7a.547.547,0,0,1-.386.933Z" transform="translate(-121.973 -130.178)"/><path class="a" d="M156.657,178.405a.547.547,0,0,1-.387-.933l1.7-1.7a.547.547,0,1,1,.773.773l-1.7,1.7A.545.545,0,0,1,156.657,178.405Z" transform="translate(-121.973 -130.178)"/><path class="a" d="M158.358,196.405a.545.545,0,0,1-.387-.16l-1.7-1.7a.547.547,0,0,1,.773-.773l1.7,1.7a.547.547,0,0,1-.386.933Z" transform="translate(-121.973 -144.242)"/><path class="a" d="M156.657,196.405a.547.547,0,0,1-.387-.933l1.7-1.7a.547.547,0,1,1,.773.773l-1.7,1.7A.545.545,0,0,1,156.657,196.405Z" transform="translate(-121.973 -144.242)"/><path class="a" d="M158.358,214.405a.545.545,0,0,1-.387-.16l-1.7-1.7a.547.547,0,0,1,.773-.773l1.7,1.7a.547.547,0,0,1-.386.933Z" transform="translate(-121.973 -158.306)"/><path class="a" d="M156.657,214.405a.547.547,0,0,1-.387-.933l1.7-1.7a.547.547,0,1,1,.773.773l-1.7,1.7A.545.545,0,0,1,156.657,214.405Z" transform="translate(-121.973 -158.306)"/><path class="a" d="M24.358,110.405a.545.545,0,0,1-.387-.16l-1.7-1.7a.547.547,0,1,1,.773-.773l1.7,1.7a.547.547,0,0,1-.386.933Z" transform="translate(-17.275 -77.048)"/><path class="a" d="M22.657,110.405a.547.547,0,0,1-.387-.933l1.7-1.7a.547.547,0,0,1,.773.773l-1.7,1.7A.545.545,0,0,1,22.657,110.405Z" transform="translate(-17.275 -77.048)"/><path class="a" d="M24.358,128.405a.545.545,0,0,1-.387-.16l-1.7-1.7a.547.547,0,0,1,.773-.773l1.7,1.7a.547.547,0,0,1-.386.933Z" transform="translate(-17.275 -91.112)"/><path class="a" d="M22.657,128.405a.547.547,0,0,1-.387-.933l1.7-1.7a.547.547,0,0,1,.773.773l-1.7,1.7A.545.545,0,0,1,22.657,128.405Z" transform="translate(-17.275 -91.112)"/><path class="a" d="M24.358,146.405a.545.545,0,0,1-.387-.16l-1.7-1.7a.547.547,0,1,1,.773-.773l1.7,1.7a.547.547,0,0,1-.386.933Z" transform="translate(-17.275 -105.176)"/><path class="a" d="M22.657,146.405a.547.547,0,0,1-.387-.933l1.7-1.7a.547.547,0,0,1,.773.773l-1.7,1.7A.545.545,0,0,1,22.657,146.405Z" transform="translate(-17.275 -105.176)"/></g></svg>