<svg xmlns="http://www.w3.org/2000/svg" width="30.222" height="26.284" viewBox="0 0 30.222 26.284"><defs><style>.a{fill:#536712;}</style></defs><g transform="translate(0 -33.36)"><path class="a" d="M143.857,332.33a.443.443,0,0,0,.443-.443v-2.145a.443.443,0,0,0-.443-.443H128.674a.443.443,0,0,0-.443.443v2.145a.443.443,0,0,0,.443.443Zm-5.519-.885h-1.63v-1.26h1.63Zm.885-1.26h1.63v1.26h-1.63Zm-3.4,1.26h-1.63v-1.26h1.63Zm-2.516,0h-1.63v-1.26h1.63Zm10.107,0h-1.675v-1.26h1.675Zm-14.3-1.26h1.675v1.26h-1.675Z" transform="translate(-120.662 -278.471)"/><path class="a" d="M29.78,58.758H28.5V41.935h.186a.443.443,0,0,0,0-.885H28.5V39.482h.186a.443.443,0,1,0,0-.885H23.068a.443.443,0,1,0,0,.885h.186v1.567h-.186a.443.443,0,0,0,0,.885h.186v1.927l-3.047-3.047a1.466,1.466,0,0,0-1.043-.432H17.217V36.846h.257a.443.443,0,1,0,0-.885h-.257V34.245h.257a.443.443,0,0,0,0-.885H9.108a.443.443,0,0,0,0,.885h.257v1.715H9.108a.443.443,0,0,0,0,.885h.257v1.986a.443.443,0,0,0,.885,0V36.846h6.082V48.84H10.25V40.6a.443.443,0,0,0-.885,0V48.84h-1.7v-2h.213a.443.443,0,1,0,0-.885H7.668V45.8a.443.443,0,0,0-.885,0v.151H6.569a.443.443,0,1,0,0,.885h.213v2H5.825a.8.8,0,0,0-.8.8v2.9H4.153a3.057,3.057,0,0,0-2.347,1.1.443.443,0,1,0,.678.569,2.174,2.174,0,0,1,1.669-.781h.875V54.6H4.153a1,1,0,0,0-1,1v3.159H1.975V55.609a.443.443,0,0,0-.885,0v3.149H.443a.443.443,0,0,0,0,.885H29.78a.443.443,0,0,0,0-.885ZM10.25,35.961V34.245h6.082v1.715H10.25Zm13.889,3.521h3.479v1.567H24.139Zm-4.976,1.786a.586.586,0,0,1,.417.173l3.673,3.673v1.669l-4.205-4.205a.443.443,0,0,0-.313-.13H17.217V41.268h1.946ZM4.041,55.6a.112.112,0,0,1,.112-.112h.875v3.271H4.041Zm1.872-5.874H19.342a.443.443,0,1,0,0-.885H17.217V43.334h1.335l4.7,4.7v.8H21.112a.443.443,0,1,0,0,.885h4.183v9.033H19.311V55.685a.443.443,0,0,0-.443-.443H12.339a.443.443,0,0,0-.443.443v3.073H5.913V49.725Zm6.869,9.033v-2.63h5.644v2.63Zm13.4,0V49.638a.8.8,0,0,0-.8-.8H24.139V41.935h3.479V58.758Z"/></g></svg>