<svg xmlns="http://www.w3.org/2000/svg" width="48.048" height="41.836" viewBox="0 0 48.048 41.836"><defs><style>.a{fill:#343434;}</style></defs><g transform="translate(-19.557 -33.577)"><path class="a" d="M27.732,51.883h-7.62a.554.554,0,0,1,0-1.108h7.62a.554.554,0,0,1,0,1.108Z" transform="translate(-0.001 -13.388)"/><path class="a" d="M120.4,203.838H88.693a.554.554,0,0,1,0-1.108H120.4a.554.554,0,1,1,0,1.108Z" transform="translate(-53.388 -131.679)"/><g transform="translate(32.907 37.954)"><path class="a" d="M100.937,148.129H80.967a.554.554,0,1,1,0-1.108h19.97a.554.554,0,0,1,0,1.108Z" transform="translate(-80.281 -126.266)"/><path class="a" d="M100.343,166.342H80.373a.554.554,0,0,1,0-1.108h19.971a.554.554,0,0,1,0,1.108Z" transform="translate(-79.819 -140.444)"/><path class="a" d="M99.356,71.334,92.01,67.093a.554.554,0,0,1-.277-.48V58.131a.554.554,0,0,1,.277-.48l7.346-4.241a.553.553,0,0,1,.554,0l7.346,4.241a.554.554,0,0,1,.277.48v8.482a.554.554,0,0,1-.277.48L99.91,71.334a.539.539,0,0,1-.554,0Zm-6.515-5.041,6.792,3.921,6.792-3.921V58.451l-6.792-3.921-6.792,3.921Z" transform="translate(-89.094 -53.336)"/></g><g transform="translate(19.557 33.577)"><path class="a" d="M67.051,66.686H35.345a.554.554,0,0,0-.554.554v3.81a3.256,3.256,0,0,1-6.513,0l.007-33.109a4.349,4.349,0,0,0-1.469-3.256h28.8a3.26,3.26,0,0,1,3.256,3.256V64.826a.554.554,0,0,0,1.108,0V37.941a4.369,4.369,0,0,0-4.364-4.364h-31.7a4.369,4.369,0,0,0-4.364,4.364v3.81a.554.554,0,0,0,.554.554h3.81a.554.554,0,0,0,0-1.108H20.665V37.941a3.256,3.256,0,0,1,6.513,0l-.007,33.109a4.369,4.369,0,0,0,4.364,4.364H63.241a4.369,4.369,0,0,0,4.364-4.364v-3.81a.554.554,0,0,0-.554-.554ZM66.5,71.05a3.26,3.26,0,0,1-3.256,3.256H34.43A4.35,4.35,0,0,0,35.9,71.05V67.794H66.5Z" transform="translate(-19.557 -33.577)"/><path class="a" d="M122.844,70.852a1.809,1.809,0,0,0-3.617,0v3.732a1.809,1.809,0,0,0,3.617,0Zm-1.108,3.732a.7.7,0,0,1-1.4,0V70.852a.7.7,0,1,1,1.4,0Z" transform="translate(-97.146 -61.186)"/><path class="a" d="M121.037,104.182a1.809,1.809,0,1,0,1.809,1.809A1.811,1.811,0,0,0,121.037,104.182Zm0,2.509a.7.7,0,1,1,.7-.7A.7.7,0,0,1,121.037,106.691Z" transform="translate(-97.147 -88.54)"/></g></g></svg>