<svg xmlns="http://www.w3.org/2000/svg" width="29.199" height="29.199" viewBox="0 0 29.199 29.199"><defs><style>.a{fill:#fff;}</style></defs><path class="a" d="M17.285,6.09q-.787-.453-1.572-.909c.286-.671.581-1.363.85-2.056a.859.859,0,0,0-.094-.8.894.894,0,0,0-1.388-.1c-1.121,1.067-2.229,2.11-3.345,3.167a.91.91,0,0,0-.291.76.9.9,0,0,0,.441.672c.533.322,1.07.625,1.6.929-.265.625-.592,1.383-.851,2.053a.867.867,0,0,0,.439,1.1.882.882,0,0,0,1.044-.2c1.09-1.038,2.251-2.129,3.346-3.168a.9.9,0,0,0,.29-.765A.918.918,0,0,0,17.285,6.09Zm-.409.829C15.7,8.03,13.57,10.085,13.457,10.14c-.008,0-.029-.011-.024-.024.3-.773.663-1.609.965-2.323a.483.483,0,0,0-.215-.625c-.618-.356-1.243-.7-1.857-1.075-.046-.028-.044-.04,0-.079.734-.7,3.16-3.051,3.411-3.22.023,0,.031.017.031.022-.3.78-.64,1.558-.964,2.323a.483.483,0,0,0,.213.626c.615.355,1.228.712,1.843,1.066.063.036.065.043.017.088Zm9.33,15.23a.428.428,0,0,0,.428-.428V12.3l1.544.746a.713.713,0,0,0,1.022-.642V9.846a.716.716,0,0,0-.4-.642L20.983,5.431A6.467,6.467,0,1,0,8.463,8.506L.855,12.179V9.935l6.1-2.946a.428.428,0,0,0-.372-.77L.4,9.2a.716.716,0,0,0-.4.642v2.56a.713.713,0,0,0,1.023.642L2.566,12.3v14.33H.77A.771.771,0,0,0,0,27.4v1.027a.771.771,0,0,0,.77.77H28.429a.771.771,0,0,0,.77-.77V27.4a.771.771,0,0,0-.77-.77h-1.8v-3.2a.428.428,0,1,0-.855,0v3.2H15.027V23.478a3.269,3.269,0,0,0,2.837-3.236v-2.8a.815.815,0,0,0-.814-.814h-.741V15.148a.428.428,0,1,0-.855,0v1.482H13.744V15.148a.428.428,0,1,0-.855,0v1.482h-.741a.815.815,0,0,0-.814.814v2.8a3.269,3.269,0,0,0,2.837,3.236v3.155H3.422V11.89L8.787,9.3a6.465,6.465,0,0,0,11.625,0l5.365,2.591v9.832A.428.428,0,0,0,26.205,22.149ZM12.19,20.242V17.485h4.819v2.757a2.41,2.41,0,1,1-4.819,0Zm16.154,7.246v.855H.855v-.855ZM14.6,12.078a5.611,5.611,0,1,1,5.611-5.611A5.618,5.618,0,0,1,14.6,12.078Zm6.137-3.572a6.441,6.441,0,0,0,.33-2.039c0-.015,0-.031,0-.046l7.278,3.515v2.243Z" transform="translate(0 0)"/></svg>