<svg xmlns="http://www.w3.org/2000/svg" width="50.416" height="50.255" viewBox="0 0 50.416 50.255"><defs><style>.a{fill:#767676;}</style></defs><g transform="translate(0 -0.82)"><g transform="translate(35.5 36.262)"><path class="a" d="M369.627,360.806a.74.74,0,0,0-.806.16l-8.087,8.087a.74.74,0,0,0,.523,1.263h8.087a.74.74,0,0,0,.74-.74v-8.087A.74.74,0,0,0,369.627,360.806Zm-6.584,8.031,5.56-5.56v5.56Z" transform="translate(-360.517 -360.749)"/></g><g transform="translate(0 0.82)"><path class="a" d="M49.959,24.457a.74.74,0,0,0-.806.16l-2.216,2.216V11.765a.74.74,0,0,0-.74-.74H40.511l2.064-2.064h0l1.989-1.989a2.257,2.257,0,0,0,0-3.191l-2.3-2.3a2.257,2.257,0,0,0-3.191,0l-1.99,1.99-2.4,2.4-5.15,5.15H6.56V3.7a.74.74,0,0,0-.74-.74A5.827,5.827,0,0,0,0,8.784v31.43a.742.742,0,0,0,.018.159,5.6,5.6,0,0,0,5.588,5.179H28.218l-4.259,4.259a.74.74,0,0,0,.523,1.263H49.676a.74.74,0,0,0,.74-.74V25.141A.74.74,0,0,0,49.959,24.457ZM40.121,2.527a.777.777,0,0,1,1.1,0l2.3,2.3a.777.777,0,0,1,0,1.1L42.052,7.391l-3.4-3.4ZM37.608,5.04l3.4,3.4L39.647,9.8l-3.4-3.4ZM48.936,33.456H47.571a.74.74,0,0,0,0,1.48h1.365v2.23H47.571a.74.74,0,1,0,0,1.48h1.365v2.23H47.571a.74.74,0,1,0,0,1.48h1.365v2.23H47.571a.74.74,0,1,0,0,1.48h1.365v3.529H26.269l7.475-7.474A.74.74,0,0,0,32.7,41.074l-3,3H5.606A4.1,4.1,0,0,1,1.484,40.08q.006-.211.033-.418v0q.012-.1.03-.2l0-.022q.016-.087.035-.173l.011-.048q.017-.073.036-.145c.007-.026.014-.052.022-.078s.022-.075.034-.112.025-.074.038-.111.018-.051.027-.077c.018-.048.037-.1.057-.144l.017-.041c.025-.059.052-.117.079-.175l0-.007a4.356,4.356,0,0,1,3.028-2.368l.011,0c.061-.013.123-.023.185-.033l.031-.005c.056-.009.113-.015.17-.022l.048-.006c.055-.006.11-.009.166-.013l.053,0q.109-.005.219-.006a.74.74,0,0,0,.74-.74V29.769a.74.74,0,1,0-1.48,0v4.672a5.78,5.78,0,0,0-3.324,1.608c-.1.094-.187.192-.276.291V8.784a4.348,4.348,0,0,1,3.6-4.277v22.3h0a.74.74,0,0,0,1.48,0h0V12.5H28.05L23.959,16.6a.74.74,0,0,0,1.046,1.047l5.354-5.354h0L35.2,7.445l3.4,3.4-.4.4h0L23.28,26.163l-3.4-3.4,2.941-2.941a.74.74,0,0,0-1.046-1.047l-3.464,3.464a.742.742,0,0,0-.052.058l-.015.021c-.01.014-.021.028-.03.042l-.015.026c-.008.014-.016.028-.023.042l-.013.028c-.007.014-.013.029-.018.044l-.006.015L16.7,26.6l-.983,2.785a.748.748,0,0,0-.029.113H13.224a.74.74,0,0,0,0,1.48H33.716a.74.74,0,0,0,0-1.48h-14.7l4.513-1.593.011,0,.052-.022.02-.009.052-.029.017-.01c.018-.011.035-.024.052-.037l.013-.009a.742.742,0,0,0,.06-.053L39.031,12.505h6.426V28.314L34.872,38.9a.74.74,0,0,0,0,1.047.756.756,0,0,0,.056.051.739.739,0,0,0,.99-.051h0L48.936,26.927ZM21.927,26.9l-2.12.748-1.412-1.412.748-2.12Z" transform="translate(0 -0.82)"/></g></g></svg>