<svg xmlns="http://www.w3.org/2000/svg" width="31" height="32.507" viewBox="0 0 31 32.507"><defs><style>.a{fill:#fff;}</style></defs><path class="a" d="M2,27.943H4.678a2.793,2.793,0,0,0,2.154,4.573H20.043a2.794,2.794,0,1,0,0-5.589h-.769V21.845a.535.535,0,0,0-.014-.07.479.479,0,0,0-.006-.071L18.23,18.148c0-.01-.011-.017-.014-.027a.481.481,0,0,0-.049-.093.5.5,0,0,0-.051-.076.511.511,0,0,0-.074-.062.475.475,0,0,0-.08-.053.505.505,0,0,0-.089-.029.277.277,0,0,0-.04-.013l10.084-13.7V19.353a4.065,4.065,0,1,0,1.016,0V2.04A2.028,2.028,0,0,0,25.75.37s-.008,0-.011.005L6.64,14.255a1.27,1.27,0,0,0-1.079,1.252v4.307H2a.508.508,0,0,0-.508.508v7.114A.507.507,0,0,0,2,27.943Zm4.017-7.114a.425.425,0,0,0,.052.011.446.446,0,0,0,.052-.011H7.546a.425.425,0,0,0,.052.011h0a.469.469,0,0,0,.052-.011h2.479v6.1H2.508v-6.1ZM8.1,15.506a1.26,1.26,0,0,0-.315-.829L23.465,3.284,12.8,17.781H10.636a.508.508,0,0,0-.508.508v1.524H8.1Zm8.481,2.275h-.634l10.2-13.859a2.006,2.006,0,0,0,.54.128ZM25.332,3.313,14.688,17.781h-.626L25.044,2.854a1.991,1.991,0,0,0,.288.459Zm-3.51,26.409A1.78,1.78,0,0,1,20.043,31.5H6.832a1.778,1.778,0,0,1,0-3.556H18.7a.462.462,0,0,0,.069.014.536.536,0,0,0,.069-.014h1.208a1.78,1.78,0,0,1,1.778,1.778ZM11.144,26.927V18.8h1.842a.525.525,0,0,0,.063.01.432.432,0,0,0,.043-.01h4.268l.9,3.12v5.011Zm20.332-3.545a3.048,3.048,0,1,1-3.048-3.048A3.051,3.051,0,0,1,31.476,23.382ZM27.917,2.04A1.015,1.015,0,1,1,26.9,1.025,1.016,1.016,0,0,1,27.917,2.04ZM6.577,15.506a.255.255,0,1,1,.509,0l0,4.306H6.577Z" transform="translate(-1.492 -0.009)"/><path class="a" d="M27.592,40.566v-.039a.445.445,0,0,0-.009-.044.494.494,0,0,0-.011-.109l-.64-2.031c0-.008-.009-.013-.011-.02a.477.477,0,0,0-.055-.1.492.492,0,0,0-.046-.068.472.472,0,0,0-.088-.07.532.532,0,0,0-.066-.045.524.524,0,0,0-.106-.032.477.477,0,0,0-.084-.017.294.294,0,0,0-.029-.006H22a.508.508,0,0,0-.508.508v6.1A.508.508,0,0,0,22,45.1h5.084a.508.508,0,0,0,.508-.508V40.579S27.591,40.57,27.592,40.566ZM22.508,39h.507v5.082h-.507Zm1.523,5.082V39h2.042l.5,1.594v3.488Z" transform="translate(-11.331 -18.692)"/><path class="a" d="M10.572,48.988H6A.508.508,0,1,0,6,50h4.572a.508.508,0,1,0,0-1.016Z" transform="translate(-3.46 -25.104)"/><path class="a" d="M51.042,4.023a.508.508,0,1,0,0-1.016h-.006a.508.508,0,0,0,.006,1.016Z" transform="translate(-25.616 -1.484)"/></svg>