<svg xmlns="http://www.w3.org/2000/svg" xmlns:xlink="http://www.w3.org/1999/xlink" width="37" height="26" viewBox="0 0 37 26"><defs><style>.a,.c{fill:#fff;}.a{stroke:#cbcbcb;}.b{clip-path:url(#a);}</style><clipPath id="a"><path class="a" d="M11,0H29a8,8,0,0,1,8,8V18a8,8,0,0,1-8,8H8a8,8,0,0,1-8-8V11A11,11,0,0,1,11,0Z" transform="translate(0 -0.097)"/></clipPath></defs><g class="b" transform="translate(0 0.097)"><g transform="translate(-0.195 1.265)"><path class="c" d="M36.663,198.972l-1.671-.531v-4.973a1.435,1.435,0,0,0-1.433-1.433H29.892a.551.551,0,1,0,0,1.1h3.667a.332.332,0,0,1,.332.332v.777H29.817a2.023,2.023,0,0,0-2.021,2.021v1.107a2.023,2.023,0,0,0,2.021,2.021h4.54l1.973.627a.228.228,0,0,1,.16.219v.861h-.528a.551.551,0,1,0,0,1.1h.528v.707a.23.23,0,0,1-.23.23H34.348a4.488,4.488,0,0,0-8.177,0H24.577V195.89a2.757,2.757,0,0,1,2.754-2.754h.359a.551.551,0,1,0,0-1.1h-.359a3.86,3.86,0,0,0-3.855,3.855v.958h-1.2a1.126,1.126,0,0,0-1.125,1.125V201.1H17.467v-.893h.878a.551.551,0,0,0,.458-.245l5.953-8.936h.615a1.717,1.717,0,0,0,1.184-.471L28.2,189l2.491-.756a.551.551,0,0,0,.391-.527v-1.553a.551.551,0,0,0-.551-.551H27.451a1.717,1.717,0,0,0-1.184.471l-1.582,1.495h-7.4a.551.551,0,1,0,0,1.1H24.9a.551.551,0,0,0,.378-.15l1.741-1.645a.62.62,0,0,1,.428-.17h2.531v.594l-2.225.675a.551.551,0,0,0-.218.127L25.8,189.755a.62.62,0,0,1-.428.17H5.148a.551.551,0,0,0-.409.182L2.186,192.94a.623.623,0,0,1-.925-.834l2.9-3.221a.624.624,0,0,1,.463-.206H15.088a.551.551,0,1,0,0-1.1H4.626a1.726,1.726,0,0,0-1.281.57l-2.9,3.221A1.724,1.724,0,0,0,3,193.677l.059-.065.7.849v6.64h-.3a3.088,3.088,0,0,0-2.741,1.656l-.355.676a.551.551,0,0,0,.488.807H4.12a4.49,4.49,0,1,0,8.852,0H14.65v.818a1.2,1.2,0,0,0,1.2,1.2h1.066a.551.551,0,1,0,0-1.1H15.85a.1.1,0,0,1-.1-.1v-.818h6.256v.818a.1.1,0,0,1-.1.1H19.118a.551.551,0,1,0,0,1.1h2.792a1.2,1.2,0,0,0,1.2-1.2v-.818h2.725a4.49,4.49,0,1,0,8.852,0H36.26a1.332,1.332,0,0,0,1.331-1.331V200.24a1.326,1.326,0,0,0-.928-1.268Zm-7.766-1.6v-1.107a.921.921,0,0,1,.92-.92h4.074v2.947H29.817a.921.921,0,0,1-.92-.92Zm-6.645.6a.024.024,0,0,1,.023-.023h1.2V201.1H22.252ZM16.366,201.1H10.783q-.168-.1-.344-.179v-.714h5.926Zm-4.525,4.442h.049a3.37,3.37,0,0,1-.591,1.423l-.034-.034a.551.551,0,1,0-.779.779l.034.034a3.37,3.37,0,0,1-1.423.591v-.049a.551.551,0,1,0-1.1,0v.049a3.37,3.37,0,0,1-1.423-.591l.034-.034a.551.551,0,1,0-.779-.779l-.034.034a3.371,3.371,0,0,1-.591-1.423h.049a.551.551,0,1,0,0-1.1H5.2a3.37,3.37,0,0,1,.591-1.423l.034.034a.551.551,0,0,0,.779-.779l-.034-.034A3.371,3.371,0,0,1,8,201.649v.049a.551.551,0,1,0,1.1,0v-.049a3.37,3.37,0,0,1,1.423.591l-.034.034a.551.551,0,0,0,.779.779l.034-.034a3.369,3.369,0,0,1,.591,1.423H11.84a.551.551,0,1,0,0,1.1Zm1.235-14.516-4.539,7.5-2.069-2.513,2.993-4.987h3.615Zm4.918,0-4.851,8.081H9.472l4.891-8.081ZM8.33,200.007a.551.551,0,0,0,.425.2h.583v.365a4.462,4.462,0,0,0-2.6.31v-2.806Zm9.721-.9H14.427l4.851-8.081h4.155ZM5.393,191.026H8.176L5.724,195.11l-1.915-2.326ZM4.864,195.8l.775.941V201.1H4.864Zm-3.088,7.34a1.989,1.989,0,0,1,1.691-.936H5.032a4.5,4.5,0,0,0-.574.936Zm10.859,0a4.5,4.5,0,0,0-.574-.936H23.476v.936Zm20.919,2.4H33.6a3.37,3.37,0,0,1-.591,1.423l-.034-.034a.551.551,0,0,0-.779.779l.034.034a3.369,3.369,0,0,1-1.423.591v-.049a.551.551,0,0,0-1.1,0v.049a3.371,3.371,0,0,1-1.423-.591l.034-.034a.551.551,0,0,0-.779-.779l-.034.034a3.37,3.37,0,0,1-.591-1.423h.049a.551.551,0,1,0,0-1.1h-.049a3.37,3.37,0,0,1,.591-1.423l.034.034a.551.551,0,1,0,.779-.779l-.034-.034a3.369,3.369,0,0,1,1.423-.591v.049a.551.551,0,0,0,1.1,0v-.049a3.369,3.369,0,0,1,1.423.591l-.034.034a.551.551,0,0,0,.779.779l.034-.034a3.369,3.369,0,0,1,.591,1.423h-.049a.551.551,0,0,0,0,1.1Z" transform="translate(-0.001 -185.613)"/><path class="c" d="M771.525,660.98a1.809,1.809,0,1,0,1.809,1.809A1.811,1.811,0,0,0,771.525,660.98Zm0,2.516a.707.707,0,1,1,.707-.707A.708.708,0,0,1,771.525,663.5Z" transform="translate(-741.266 -643.41)"/><path class="c" d="M184.079,660.98a1.809,1.809,0,1,0,1.809,1.809A1.811,1.811,0,0,0,184.079,660.98Zm0,2.516a.707.707,0,1,1,.707-.707A.708.708,0,0,1,184.079,663.5Z" transform="translate(-175.533 -643.41)"/></g></g></svg>